<?xml version="1.0" encoding="UTF-8"?><svg id="svg" xmlns="http://www.w3.org/2000/svg" viewBox="0 0 400 143.48"><defs><style>.cls-1{fill:#44baea;}.cls-1,.cls-2,.cls-3{fill-rule:evenodd;}.cls-2{fill:#db1e39;}.cls-3{fill:#f1d910;}</style></defs><path id="path1" class="cls-2" d="m191.76,20.58c-1,1.04-2.39,2.84-3.07,3.98l-1.25,2.08-1.32-1.54c-1.82-2.12-4.93-3.61-7.53-3.61s-2.65,0-1.35,2.7c1.49,3.1,1.91,5.53.89,5.1-3.84-1.62-7.19-1.69-9.66-.18l-1.31.8,2.12,1.96c1.17,1.08,2.51,2.65,2.98,3.49l.85,1.53h-2.45c-3.36,0-5.88,1.05-7.8,3.23l-1.56,1.77h-5.91l-6.98,9.23c-3.84,5.07-7.1,9.3-7.25,9.39-.15.09-.18-1.74-.06-4.06l.21-4.23-5.96,6.07c-3.28,3.34-6.02,6.28-6.11,6.53-.08.26-.49.84-.9,1.3-.71.79-.75,1.6-.65,14.93l.11,14.1,4.4-6.01c2.42-3.31,4.51-6.02,4.65-6.04.14,0,4,4.71,8.59,10.48s8.96,11.26,9.73,12.2l1.4,1.7h37.42s37.41,0,37.41,0l8.97-11.6c4.93-6.38,9.09-11.6,9.24-11.6s.97.91,1.83,2.01c5.23,6.74,4.86,6.39,6.73,6.39.94,0,3.39.12,5.45.26l3.73.26-.67-.95c-.52-.75-.67-1.88-.67-5.26v-4.31h2.41c5.91,0,8.39-3.29,8.39-11.12,0-8.52-2.06-10-12.62-9.12-5.92.5-7.27.51-7.77.07-.34-.29-2.41-2.02-4.61-3.85l-4-3.32-.2,3.53-.2,3.53-7.76-10.26-7.76-10.26h-2.24c-2.08-.01-2.3-.1-3.08-1.31-1.37-2.12-4.64-3.64-7.86-3.67-1.49-.01-2.7-.12-2.7-.25,0-.66,2.71-4.18,4.05-5.26,3.66-2.94-3.66-4.6-9.35-2.13-.97.42-.6-1.55.94-4.93.64-1.4,1.16-2.62,1.16-2.7,0-.34-4.42-.13-5.47.27-1.85.69-4.07,2.4-5.29,4.06l-1.15,1.56-1.27-2.22c-1.31-2.29-5.01-6.62-5.66-6.62-.2,0-1.19.85-2.19,1.9m-34.56,23.01c0,.79-.05.81-.65.21-.36-.36-.52-.85-.37-1.09.4-.65,1.02-.12,1.02.88m3.6-.92c1.09.69-.45,1.82-1.62,1.19-.89-.47-.89-.51-.17-1.04.88-.64,1.01-.65,1.8-.15m3.96.15c.74.89-.45,1.65-1.6,1.03-.87-.46-.87-.5-.15-1.03.94-.68,1.18-.68,1.75,0m4.04-.15c1.09.69-.45,1.82-1.62,1.19-.89-.47-.89-.51-.17-1.04.88-.64,1.01-.65,1.8-.15m3.96.15c.77.93-.5,1.68-1.57.93-.81-.57-.82-.62-.12-1.02.97-.56,1.15-.55,1.69.1m4.04-.15c1.09.69-.45,1.82-1.62,1.19-.89-.47-.89-.51-.17-1.04.88-.64,1.01-.65,1.8-.15m3.96.15c.74.89-.45,1.65-1.6,1.03-.87-.46-.87-.5-.15-1.03.94-.68,1.18-.68,1.75,0m4.04-.15c1.09.69-.45,1.82-1.62,1.19-.89-.47-.89-.51-.17-1.04.88-.64,1.01-.65,1.8-.15m4,0c.53.33.52.46-.06,1.04s-.75.6-1.53.05c-.83-.58-.84-.63-.14-1.04.91-.53.99-.53,1.73-.06m4,0c1.09.69-.45,1.82-1.62,1.19-.89-.47-.89-.51-.17-1.04.88-.64,1.01-.65,1.8-.15m4,0c1.09.69-.45,1.82-1.62,1.19-.89-.47-.89-.51-.17-1.04.88-.64,1.01-.65,1.8-.15m4,0c.53.33.52.46-.06,1.04s-.75.6-1.53.05c-.83-.58-.84-.63-.14-1.04.91-.53.99-.53,1.73-.06m4,0c.53.33.52.46-.06,1.04s-.75.6-1.53.05c-.83-.58-.84-.63-.14-1.04.91-.53.99-.53,1.73-.06m4,0c1.09.69-.45,1.82-1.62,1.19-.89-.47-.89-.51-.17-1.04.88-.64,1.01-.65,1.8-.15m4,0c.53.33.52.46-.06,1.04s-.75.6-1.53.05c-.83-.58-.84-.63-.14-1.04.91-.53.99-.53,1.73-.06m4,0c.53.33.52.46-.06,1.04s-.75.6-1.53.05c-.83-.58-.84-.63-.14-1.04.91-.53.99-.53,1.73-.06m4,0c.53.33.52.46-.06,1.04s-.75.6-1.53.05c-.83-.58-.84-.63-.14-1.04.91-.53.99-.53,1.73-.06m4,0c.53.33.52.46-.06,1.04s-.75.6-1.53.05c-.83-.58-.84-.63-.14-1.04.91-.53.99-.53,1.73-.06m4,0c.53.33.52.46-.06,1.04s-.75.6-1.53.05c-.83-.58-.84-.63-.14-1.04.91-.53.99-.53,1.73-.06m2.28,1.1c-.64.64-.68.64-.68-.14,0-.45.12-.94.27-1.09.15-.15.46-.09.68.14.28.28.19.63-.27,1.09m-75.08,1.3c0,.43-.36.98-.8,1.21-.81.43-1.25-1.01-.53-1.73.55-.55,1.33-.24,1.33.52m75.49,1.53c2.92,3.71,21.11,27.73,21.21,28,.06.15-5.08,6.94-11.42,15.08l-11.52,14.8-35.78.09-35.78.09-6.5-8.17c-3.58-4.49-8.94-11.24-11.93-14.98l-5.43-6.81,4.35-5.7c2.39-3.14,7.54-9.89,11.45-15.01l7.1-9.3h72.74l1.51,1.92m1.48-1.67c.99.38.84,2.13-.17,1.87-.44-.12-.8-.35-.8-.53s-.11-.61-.24-.95c-.26-.67.15-.8,1.21-.39m-79.22,3.15c.2.51-.77,1.41-1.52,1.41-.32,0-.28-1.41.04-1.73.46-.46,1.24-.29,1.48.33m81.89.21c.2,0,.37.46.37,1.03,0,1.42-1.24,1.14-1.65-.36-.25-.92-.19-1.09.3-.9.33.13.77.23.97.23m-84.23,2.99c0,.4-.4.87-.9,1.05-1.01.37-1.4-1.37-.4-1.77.81-.32,1.3-.05,1.3.72m87.33,1.39c.11.73-.03.86-.8.76-.68-.1-.97-.43-1.06-1.23-.16-1.42,1.65-.96,1.86.47m136.65-.59c-.74.94-1.17,1.02-7.98,1.64-8.27.75-7.73.58-6.64,2.11,1.35,1.89,1.32,39.85-.03,41.67-1.15,1.56-1.6,1.43,7.27,1.98l7.8.48,1.09,1.27,1.09,1.27v-8.1c.02-8.55,0-8.69-1.27-7.08-.86,1.1-6.88,1.12-7.6.02-.36-.54-.4-3.53-.06-4.41.41-1.08,3.14-.83,4.09.37,1.24,1.58,1.27,1.43,1.27-6.88v-7.88l-1.12,1.07c-.8.77-1.54,1.08-2.6,1.08h-1.48v-5.53l2.82-.13c2.56-.12,2.88-.05,3.41.77,1.06,1.62,1.17.99,1.17-6.9,0-8.27-.01-8.35-1.22-6.81m-211.62,1.81c-2.6,1.31-2.56.94-2.56,20.88v18.04l2.1,1.96c3.71,3.46,3,3.32,16.1,3.32,17.02,0,15.4,2.2,15.4-20.93,0-20.33.14-19.43-3.53-22.2l-2.21-1.67-11.83-.11c-11.27-.11-11.91-.07-13.47.71m31.84,20.47v21.27l1.45,1.33,1.45,1.33h13.07l.12-3.5.12-3.5.78,2.11c1.72,4.64,2.51,4.96,12.06,4.81l7.24-.11-5.23-10.95-5.23-10.95.85-2.25c.46-1.24,2.33-5.91,4.15-10.37l3.31-8.12-.81-1.08-.81-1.08-7.47-.11-7.47-.11-.73,1.71c-.66,1.54-.76,1.62-1.01.82-.71-2.21-1.78-2.51-9.09-2.51h-6.75v21.27m-46.4-20.12c0,.68-.72,1.24-1.58,1.24-.17,0-.23-.45-.12-1,.23-1.21,1.7-1.42,1.7-.24m59.2,4.67c0,6.9.67,6.91,3.26.08l1.86-4.9,6.44-.11c3.54-.06,6.44,0,6.44.15s-1.98,4.54-4.4,9.77c-2.42,5.23-4.4,9.61-4.4,9.73s2.07,4.8,4.6,10.39,4.6,10.37,4.6,10.61c0,.31-1.96.45-6.37.45h-6.37l-2.11-5.4c-1.61-4.13-2.28-5.4-2.83-5.4-.65,0-.72.48-.72,5.4v5.4h-12v-41.14l.9-.13c.49-.07,3.19-.07,6,0l5.1.12v4.98m-17.97-3.52l1.17,1.31v17.41c0,23,1.63,20.77-15.2,20.77s-14.79,2.06-14.8-20.64c0-22.49-1.59-20.42,15.53-20.27l12.13.11,1.17,1.31m50.77.59c0,1.3-1.77.75-1.93-.6-.12-1.05-.08-1.08.9-.64.58.26,1.03.8,1.03,1.23m105.85-.82c-8.49,2.36-8.62,18.47-.19,24.8,3.34,2.51,4.86,4.52,4.66,6.18-.31,2.64-3.28,2.29-3.97-.46l-.45-1.79h-7.98l.77,1.31c.42.72.89,2.2,1.04,3.29,1.04,7.55,3.65,10.61,9.06,10.59,5.95-.02,8.69-4.51,8.32-13.64-.28-6.88-1.12-8.38-7.64-13.67-2.2-1.78-3.17-3.45-3-5.16.26-2.64,2.61-2.48,3.29.22l.37,1.46h7.51l-.77-1.1c-.48-.68-.88-2.16-1.05-3.87-.69-6.93-4.17-9.78-9.99-8.16m-307.7,1.05c1.1,2.12.96,42.96-.15,44.78l-.79,1.3,2.49-.04c1.37-.02,3.48-.16,4.69-.3l2.2-.26.2-8.6.2-8.6,1.7-.12,1.7-.12v17.34l4.3-.29c5.12-.35,5.13-.35,4.11-1.79-1.27-1.78-1.26-39.11,0-40.72,1.03-1.31.71-1.5-3.02-1.86-1.54-.15-3.38-.37-4.1-.49l-1.3-.22v16.3l-1.8-.14-1.8-.14v-16.22l-1.6-.26c-.88-.14-2.97-.37-4.64-.51l-3.04-.26.64,1.24m287.26.58c-.42.71-2.05,2.83-3.64,4.7-5.01,5.92-4.76,4.89-4.9,20-.12,12.29-.17,13.05-.91,13.84l-.79.84,2.71.26c1.49.14,3.57.26,4.61.26h1.9s0-5.6,0-5.6v-5.6h3.6v5.58c0,6.49-.43,5.96,5.04,6.29l4.31.26-.87-1.23c-.86-1.2-.87-1.49-.87-14.68v-13.45l-.98-1.89c-.54-1.04-2.41-3.54-4.16-5.56-1.75-2.02-3.3-4.04-3.45-4.5-.36-1.15-.71-1.04-1.59.47m-179.81.29c0,.43-.36.98-.8,1.21-.81.43-1.25-1.01-.53-1.73.55-.55,1.33-.24,1.33.52m165.79.4c-.66.66-1.96.89-8.09,1.47-7.31.69-7.82.82-6.7,1.75,1.08.9.88,32.25-.22,33.42l-.82.87,2.92.25c1.6.14,5.26.37,8.12.51,4.97.25,5.24.31,6.09,1.31l.89,1.05.02-6.57v-6.57s-.89.84-.89.84c-.82.76-1.23.82-4.4.61l-3.5-.22v-4.29h1.67c1.17,0,1.95.26,2.6.87l.93.87v-6.51c0-6.25-.03-6.48-.7-5.69-.47.55-1.29.86-2.5.94l-1.8.13-.12-2.3-.12-2.3h2.89c2.42,0,3.05.14,3.82.87l.93.87v-6.47c0-3.56-.05-6.47-.11-6.47s-.47.35-.9.78m-68.99,1.87c0,.96-1.03.94-1.69-.02-.73-1.07-.35-1.83.69-1.36.65.29,1,.78,1,1.38m-176.74-.37c-3.54,1.74-4.06,4.32-4.06,20.1,0,13.55.18,14.89,2.42,17.99,2.9,4.01,10.03,4.32,13.72.59q2.86-2.89,2.86-17.96v-13.6l-1.13-2.3c-1.63-3.32-3.18-4.35-7.42-4.95-4.54-.64-4.82-.64-6.39.14m77.94,1.11c0,.51-1.13,1.41-1.77,1.41-.32,0-.28-1.41.04-1.73.5-.5,1.73-.27,1.73.32m-60.05.95c1.29,1.81,1.33,35.34.05,36.97-.44.56-.8,1.1-.8,1.2,0,.18,1.79.08,6.69-.35l2.49-.22.11-7.47.11-7.47,1.26-.12c2.24-.22,2.54.74,2.54,8.21v6.51h1.54c.85,0,2.92-.12,4.61-.26l3.07-.26-.81-.87c-.75-.79-.81-1.38-.81-7.18,0-7.04-.33-8.35-2.43-9.59l-1.22-.72.98-.91c3.92-3.63,3.08-13.73-1.32-16.01-.61-.32-4.07-.94-7.67-1.39-3.6-.45-7.16-.92-7.9-1.04l-1.35-.23.85,1.19m198.48-.18c-3.96.38-4.48.51-3.9.99.95.78,1.02,29.77.07,31.12-.7,1-.01,1.12,8.59,1.57,4.64.24,5.08.33,6.1,1.29l1.1,1.03v-6.07c0-5.92-.17-6.71-1.2-5.48-.36.43-1.31.6-3.45.6h-2.95v-11.87c0-11.64.02-11.89.87-12.8.82-.87.83-.92.1-.87-.42.03-2.82.26-5.34.5m-37.87.48c.62.24.92,2.16.33,2.15-.61-.01-1.18-.62-1.4-1.49-.24-.93-.01-1.07,1.07-.66m-102.97,1.77c0,.48-.37.95-.9,1.15-1.14.43-1.26.31-.94-.95.32-1.27,1.84-1.44,1.84-.21m-35.1.55l1.1,1v15.49c0,15.35,0,15.5-.87,16.42-1.18,1.26-1.14,1.27,4.02.89,5.06-.38,5.26-.44,4.31-1.49-.56-.62-.66-1.69-.64-6.9.02-4.24.15-5.98.42-5.57.22.33,1.87,3.39,3.68,6.8,3.45,6.52,3.61,6.69,6.12,6.22l1.36-.26v-14.89c0-14.45.02-14.9.8-15.38,1.39-.87.89-1.18-2.3-1.45-1.71-.15-3.89-.37-4.86-.51l-1.76-.25.66.94c.54.77.66,1.92.63,6.15l-.03,5.21-3.07-6.25-3.07-6.25-2.2-.26c-1.21-.14-2.92-.35-3.8-.47l-1.6-.21,1.1,1m67.19,10.72l.11,11.32,1.83.12c2.84.19,2.79.39,2.67-11.77l-.11-10.75-2.31-.12-2.31-.12.11,11.32m74.09-8.97c.31.81-.35,1.47-1.16,1.16-.97-.37-.83-2.25.15-1.99.42.11.88.48,1.01.83m-108.59.65c0,.62-.28,1.03-.8,1.16-.63.17-.8.01-.8-.72,0-.55.29-1.01.7-1.12.38-.1.74-.2.8-.23.06-.03.1.38.1.91m38.4,9.65c0,6-.14,9.4-.4,9.4s-.4-3.4-.4-9.4.14-9.4.4-9.4.4,3.4.4,9.4m72.73-6.62c.11.73-.03.86-.8.76-.68-.1-.97-.43-1.06-1.23-.16-1.42,1.65-.96,1.86.47m77.43.43c.39.98.64,2.78.64,4.6v2.99h-3.7l.19-3.1c.33-5.27,1.7-7.42,2.87-4.49m-254.96-.41c.92.92,1.25,18.8.39,20.43-.65,1.21-2.7,1.04-3.2-.25-1.55-4.07-.25-20.97,1.61-20.97.22,0,.76.36,1.2.8m64.24-.34c.16.26-.13.8-.68,1.25-.87.71-.98.72-1.1.11-.3-1.5,1.05-2.53,1.77-1.36m131.68,1.62c1.52,1.52.31,4.2-2.08,4.59l-1.44.23v-5.3h1.52c.84,0,1.74.22,2,.48m-172.62,1.21c1.74,1.99.5,4.71-2.13,4.71h-1.57v-2.73c0-1.5.11-2.85.25-2.98.46-.46,2.75.2,3.45,1m156.7.78c0,.92-1.41,1-1.76.1-.53-1.39-.31-1.78.76-1.29.55.25,1,.79,1,1.19m-118-.25c0,.49-1.14,1.39-1.77,1.39-.54,0-.16-1.6.46-1.95.81-.45,1.31-.24,1.31.56m119.68,3.12c-.65.29-1.04.27-1.39-.08-.73-.73.43-1.32,1.48-.76.8.43.8.44-.09.84m-121.86-.5c.42.68-.45,1.28-1.4.97-.69-.22-.77-.39-.39-.84.56-.67,1.42-.74,1.79-.13m1.76,2.55c.26.32.42.84.35,1.15-.21.89-1.93.07-1.93-.92s.88-1.07,1.58-.23m118.02.37c0,.61-.28,1.03-.77,1.16-.93.24-1.44-.77-.78-1.56.72-.87,1.56-.65,1.56.4m-115.27,3.54c.12.99.04,1.07-.8.76-1.31-.48-1.53-2.16-.26-1.99.68.1.97.43,1.06,1.23m112.87-.51c0,1.1-1.52,1.89-1.87.97-.16-.42.02-.88.48-1.22,1.02-.74,1.39-.68,1.39.24m-110.38,3.47c.22.58.32,1.14.22,1.23-.4.4-1.85-.77-1.85-1.5,0-1.15,1.15-.96,1.62.27m107.98-.33c0,.84-.74,1.68-1.48,1.68s-.63-1.49.18-1.97c1.01-.59,1.3-.53,1.3.29m-105.68,2.96c.48.48.67,1.92.25,1.92-.74,0-1.77-.94-1.77-1.61,0-.88.79-1.04,1.52-.31m102.92.62c-.39,1.46-1.64,1.73-1.64.36,0-.89.34-1.18,1.66-1.41.15-.03.13.45-.03,1.05m-99.99,3.43c.25.92.19,1.09-.3.9-.33-.13-.77-.23-.97-.23s-.37-.46-.37-1.03c0-1.42,1.24-1.14,1.65.36m97.22.77c-.55.55-1.66.08-1.66-.7,0-1.02,1.77-1.48,1.93-.5.07.44-.05.98-.27,1.2m-95.23,1.52c.68.37,1.13,1.99.55,1.99-.74,0-1.77-.94-1.77-1.61,0-.9.15-.95,1.23-.37m93.02,1.41c-.35.91-1.85.72-1.85-.24s1.72-1.81,1.93-.91c.07.32.03.83-.09,1.15m-90.48,1.62c.64.24.91,2.16.31,2.16-.79,0-1.79-1.12-1.55-1.74.28-.74.35-.76,1.25-.41m88.01,1.11c-.17.67-.54,1.05-1.02,1.05-1.1,0-.98-1.54.14-1.97,1.13-.43,1.2-.36.88.92m-85.53,2.15c.61.4,1.11,2.09.61,2.09-1.01,0-1.66-.57-1.66-1.44,0-.99.27-1.16,1.05-.65m83.05.71c-.23,1.17-1.7,2.22-1.7,1.2,0-.34-.02-.75-.05-.91-.04-.22,1.45-1.24,1.9-1.29.02,0-.04.45-.15,1.01m-79.7,3.8c0,.43-.25.79-.55.79-.8,0-1.58-1.09-1.3-1.81.33-.87,1.85-.03,1.85,1.03m77.2-.43c0,1.06-1.52,1.9-1.85,1.03-.28-.73.5-1.81,1.3-1.81.3,0,.55.35.55.79m-76.06,3.25c-.75.46-.94-.32-.28-1.12.49-.59.55-.59.68.07.08.39-.1.87-.4,1.05m3.64-1.07c.38.46.31.66-.38,1.03-1.11.6-2.27-.19-1.56-1.05.59-.71,1.33-.7,1.93.03m4,0c.38.46.31.66-.38,1.03-1.11.6-2.27-.19-1.56-1.05.59-.71,1.33-.7,1.93.03m3.82-.03c.72.53.72.57-.15,1.03-1.16.62-2.34-.14-1.6-1.03.57-.68.82-.68,1.75,0m4,0c.72.53.72.57-.15,1.03-1.16.62-2.34-.14-1.6-1.03.57-.68.82-.68,1.75,0m3.87-.11q.81.43-.04,1.04c-1.08.76-2.35,0-1.58-.92.55-.66.59-.66,1.62-.11m4,0c.81.43.81.44-.06,1.05-.79.56-.94.55-1.54-.05s-.59-.71-.06-1.04c.75-.47.69-.48,1.66.04m4,0c.81.43.81.44-.06,1.05-.79.56-.94.55-1.54-.05s-.59-.71-.06-1.04c.75-.47.69-.48,1.66.04m4,0c.81.43.81.44-.06,1.05-.78.55-.94.55-1.49,0-1.12-1.12,0-1.88,1.55-1.05m4,0c.81.43.81.44-.06,1.05-.78.55-.94.55-1.49,0-1.12-1.12,0-1.88,1.55-1.05m4,0c.81.43.81.44-.06,1.05-.78.55-.94.55-1.49,0-1.12-1.12,0-1.88,1.55-1.05m4,0l.81.43-.81.57c-.88.61-2.07.38-2.07-.41,0-1.06.78-1.28,2.07-.59m4,0l.81.43-.83.58c-1.1.77-2.79.04-2.02-.88.57-.69.97-.71,2.04-.14m4,0l.81.43-.83.58c-1.1.77-2.79.04-2.02-.88.57-.69.97-.71,2.04-.14m4.03.01q.84.45-.12.96c-1.25.67-2.69.05-1.95-.84.57-.69.97-.71,2.07-.12m3.88.12c.38.45.32.65-.26.97-1.05.56-2.34-.18-1.69-.97.6-.72,1.35-.72,1.95,0m4,0c.38.45.32.65-.26.97-1.05.56-2.34-.18-1.69-.97.6-.72,1.35-.72,1.95,0m4,0c.38.46.31.66-.38,1.03-1.11.6-2.27-.19-1.56-1.05.59-.71,1.33-.7,1.93.03m4,0c.38.46.31.66-.38,1.03-1.11.6-2.27-.19-1.56-1.05.59-.71,1.33-.7,1.93.03m2.82.91c0,.95-.99.34-1.14-.69-.12-.83-.06-.88.5-.42.35.29.64.79.64,1.11"/><path id="path3" class="cls-1" d="m150.15,53.98c-3.9,5.12-9.06,11.87-11.45,15.01l-4.35,5.7,5.43,6.81c2.98,3.75,8.35,10.49,11.93,14.98l6.5,8.17,35.78-.09,35.78-.09,11.52-14.8c6.33-8.14,11.47-14.93,11.42-15.08-.1-.28-18.29-24.3-21.21-28l-1.51-1.92h-72.74l-7.1,9.3m188.25-8.52c-1.32.15-1.96.37-1.6.54.33.15,5.33,2.06,11.11,4.23,11.11,4.17,11.73,4.45,9.8,4.45-.67,0-1.78.11-2.47.25l-1.25.25,1.38,1.53c1.46,1.62,1.98,3.11,2.43,6.96.15,1.32.53,2.75.84,3.19.93,1.33.71,1.42-3.4,1.42h-3.96l-.26-1.36c-.6-3.18-2.88-2.7-2.52.53.17,1.55.49,2.06,2.34,3.73,8.02,7.25,8.14,7.49,8.14,15.7s-2.14,11.63-7.89,12.09c-6.2.49-9.02-2.33-10.12-10.12-.15-1.08-.62-2.57-1.04-3.29-.42-.73-.76-1.4-.76-1.5s1.96-.18,4.35-.18h4.35l.26,1.61c.33,2.04,1.96,3.06,2.89,1.8,1.29-1.77.04-4.09-3.68-6.85-4.74-3.5-6.15-6.3-6.47-12.79-.41-8.35,2.29-12.22,9.1-13.05.67-.08-2.33-1.49-9.08-4.25l-10.09-4.13-3.51.33-3.52.33,9.6,4.11c10.43,4.46,11.27,4.87,10,4.9-2.21.05-13.52,1.18-13.71,1.37-.24.24-.16.35,3.58,4.62,4.38,5.01,4.1,3.73,4.33,19.86.19,13.34.24,14.11,1,14.96l.8.9-4.72-.25c-5.95-.31-5.48.23-5.48-6.3v-5.58h-2.8v11.4l-3.7-.26c-2.04-.14-4.32-.28-5.07-.3l-1.37-.04.85-.9c.82-.88.85-1.29.97-13.9.14-15.04-.09-14.06,4.69-19.8,2.87-3.45,4.17-5.23,4.53-6.23.17-.48-1.28-1.46-6.08-4.11l-6.3-3.48-3.16.31-3.15.31,5.86,3.87c3.22,2.12,6.24,4.07,6.7,4.31,1.33.71.98,1.22-.86,1.22-.93,0-2.64.12-3.8.26l-2.1.25v5.54c0,5.89-.23,6.48-1.8,4.74-.58-.64-1.23-.8-3.26-.8h-2.54v4.66l1.3-.18c.71-.1,1.62-.46,2.02-.81,1.77-1.55,1.88-1.21,1.88,5.56s-.19,7.34-1.8,5.57c-.45-.5-1.23-.8-2.06-.8h-1.34v4.29l2.9.22c2.62.2,3.03.13,4.3-.75l1.4-.97.11,6.39.11,6.39,1.29.2c.71.11,4.89.47,9.29.81,15.95,1.22,48.44,3.81,49.9,3.98,1.74.19,1.82.02.6-1.43-.89-1.06-.99-1.08-8.7-1.54-8.87-.54-8.42-.42-7.27-1.97,1.33-1.8,1.37-39.38.05-41.56-1.04-1.7-1.73-1.47,6.62-2.23,6.96-.63,7.23-.69,8.08-1.73,1.14-1.39,2.8-.94-15.25-4.11-15.53-2.73-17.32-2.92-21.83-2.41m-137.37.31c-.42.11-1.03.46-1.35.78-.32.32-1.05.54-1.63.48s-1.44.11-1.92.38c-1.12.61-1.93.6-2.94-.02-.66-.41-.87-.4-1.15.05-.42.67-2.41.73-2.82.08-.17-.28-.7-.37-1.3-.22-.66.17-1.22.04-1.63-.38-.35-.35-.99-.63-1.43-.63s-.92-.18-1.05-.4c-.16-.26,2.88-.38,8.88-.35,5.02.03,8.78.13,8.35.24m-145.15,5.31c-19.72,3.96-18.26,3.49-17.13,5.41,1.24,2.1,1.34,42.36.12,44.13-1.14,1.65-1.34,2.06-.99,2.06.18,0,.73-.71,1.22-1.58l.9-1.58v-21.04c0-18.08-.09-21.21-.61-22.22l-.61-1.18h1.51c.83.01,2.77.2,4.31.43,3.19.47,35.81-7.09,33.14-7.68-2.38-.53-4.82-.16-21.86,3.25m106.12-3c.4.48.4.72,0,1.2-.62.75-1.76.79-1.48.06.15-.38-.07-.49-.76-.35-.55.11-.96,0-.96-.26s.36-.45.8-.45.8-.18.8-.4c0-.61,1.04-.48,1.6.2m5.04.3l.76.9-.9-.76c-.89-.76-.9-.75-.9.12,0,.59.17.79.5.6.38-.22.39-.16.04.22-.82.89-1.47-.38-.97-1.89.12-.35.82.03,1.47.8m4.96-.3c.4.48.4.72,0,1.2-.83,1-1.6.72-1.6-.6s.77-1.6,1.6-.6m45.47.6c0,1.3-.66,1.57-1.47.6-.4-.48-.4-.72,0-1.2.8-.97,1.47-.7,1.47.6m4.93,0c0,1.32-.77,1.6-1.6.6-.4-.48-.4-.72,0-1.2.83-1,1.6-.72,1.6.6m5-.06c.09,1.15-.37,1.41-1.37.79-.74-.46-.75-.55-.15-1.22.82-.9,1.43-.73,1.52.44m-66.2.06c0,.75.11.85.48.48.37-.37.37-.59,0-.96-.37-.37-.48-.27-.48.48m9.71-.02c.03.46.25.77.48.69.57-.19.52-1.17-.06-1.36-.28-.09-.45.19-.41.67m45.27-.34c-.15.24-.07.63.18.88.33.33.45.21.45-.44,0-.97-.21-1.11-.62-.44m4.82-.04c-.27.44.07,1.2.54,1.2.16,0,.29-.36.29-.8,0-.85-.42-1.06-.83-.4m5.18.04c-.15.24-.07.63.18.88.33.33.45.21.45-.44,0-.97-.21-1.11-.62-.44m-156.58,3.57c-7.81,1.94-14.89,3.66-15.73,3.8-2.24.39-1.55.67,3.02,1.22l4.09.49,6.01-1.74c3.3-.96,8.17-2.38,10.81-3.15s6.54-1.9,8.67-2.5c4.54-1.28,4.65-1.75.4-1.7-2.46.03-5.94.75-17.28,3.57m95.6-3.21c0,.22-.27.4-.6.4s-.6-.18-.6-.4.27-.4.6-.4.6.18.6.4m4.8,0c0,.22-.27.4-.6.4s-.6-.18-.6-.4.27-.4.6-.4.6.18.6.4m49.2,0c0,.22-.36.4-.8.4s-.8-.18-.8-.4.36-.4.8-.4.8.18.8.4m4.8,0c0,.22-.27.4-.6.4s-.6-.18-.6-.4.27-.4.6-.4.6.18.6.4m4.8,0c0,.22-.27.4-.6.4s-.6-.18-.6-.4.27-.4.6-.4.6.18.6.4m-146.47,4.72c-6.75,2.56-12.2,4.77-12.11,4.92.09.14,1.39.38,2.88.53l2.72.27,12.07-4.9c6.64-2.7,12.03-4.93,11.99-4.97-1.67-1.34-5.38-.46-17.55,4.15m12.67,1.13c-5.5,2.76-9.97,5.14-9.94,5.29.04.15,3.34.67,7.34,1.17l7.27.91,8.12-5.71c4.47-3.14,8-5.82,7.86-5.96-.14-.14-2.6-.36-5.46-.49l-5.2-.23-10,5.02m197.88-4.24c-4.03.39-7.4.78-7.49.87-.09.09,2.3,2.05,5.31,4.34l5.48,4.18-3.05.4c-5.01.66-4.72-.19-4.72,13.86v11.94h2.55c1.78,0,2.7-.18,3.05-.6,1.48-1.78,1.8-.84,1.74,4.97l-.06,5.57,1.46.22c.81.12,4.34.42,7.86.67s7.02.6,7.78.8c1.69.43,1.82.34.86-.69-.65-.7-1.45-.85-5.9-1.08-2.83-.15-6.44-.38-8.03-.51l-2.89-.24.79-1c1.07-1.36,1.24-32.42.19-33.29-1.12-.93-.61-1.06,6.7-1.75,6.66-.63,7.38-.77,8.17-1.62l.87-.93-5.93-3.45c-3.26-1.9-6.26-3.43-6.67-3.4-.41.03-4.04.37-8.07.76m-179.47,6.22l-7.38,6.17-2.7-.38c-1.48-.21-2.78-.3-2.88-.2-.1.1.02.18.27.18,4.52,0,6.44,12.41,2.5,16.18l-1.21,1.16,1.22.74c1.98,1.21,2.37,2.75,2.37,9.43,0,3.78.17,6.3.48,6.95l.48,1.02.92-1.09.92-1.09v-30.64l-1.08-1.12-1.08-1.12,2.58.29c5.14.58,4.43.93,11.75-5.84,3.66-3.39,6.6-6.2,6.54-6.24-.06-.05-1.51-.19-3.21-.31l-3.1-.22-7.39,6.17m15.57-2.05c-2.01,1.77-5.19,4.62-7.06,6.32-3.22,2.93-3.51,3.1-5.26,3.1-1.02,0-1.85.07-1.85.15s1.06,2.38,2.36,5.1c1.3,2.72,2.44,5.4,2.55,5.95.1.55.21-1.37.24-4.27.04-4.38-.06-5.38-.59-5.92-1.01-1.01-.61-1.05,4.6-.49l4.88.52,5.4-5.45c5.18-5.23,6.82-7.08,6.51-7.37-.08-.08-1.93-.3-4.12-.5l-3.98-.36-3.66,3.22m144.71-2.08l-3.71.38,3.81,4.11c4.4,4.76,4.33,4.59,2.11,4.64-1.74.04-4.28.65-3.03.72,2.87.17,4.33,3.5,4.33,9.84,0,7.75-1.77,10.25-7.46,10.54l-2.94.15v4.43c0,3.65.12,4.56.7,5.21.69.77.64.78-4.9.56-4.54-.18,21.39,2.18,28.4,2.58,1.1.06,2.32.38,2.7.69.38.32.7.4.7.18,0-1.26-1.5-1.62-8.34-2.04-7.5-.46-7.72-.51-6.73-1.61.96-1.06,1.02-30.25.06-30.62-1.44-.55-.33-.96,3.3-1.22,7.37-.51,7.3-.12.95-4.88-3.04-2.29-5.69-4.13-5.89-4.1-.2.03-2.03.23-4.07.44m-82.42,2.57c3.67,2.77,3.53,1.88,3.53,22.2,0,23.13,1.62,20.93-15.4,20.93-13.1,0-12.39.15-16.1-3.32l-2.1-1.96v-18.04c0-19.94-.05-19.57,2.56-20.88,1.56-.78,2.2-.82,13.47-.71l11.83.11,2.21,1.67m18.85-1.06c.57.45,1.16,1.21,1.31,1.7.26.8.35.72,1.01-.82l.73-1.71,7.47.11,7.47.11.81,1.09.82,1.09-3.31,8.11c-1.82,4.46-3.69,9.12-4.16,10.36l-.85,2.25,5.23,10.95,5.23,10.95-7.24.11c-9.56.15-10.34-.16-12.06-4.81l-.78-2.11-.12,3.5-.12,3.5h-13.07l-1.45-1.33-1.45-1.33v-42.54h6.75c6.17,0,6.83.07,7.78.81m24.92.23c-.35.91.98,3.64,2.88,5.93,3.08,3.7,4.28,6.43,4.26,9.73-.02,3.03.05,3.13,1.93,2.96.39-.03,1.11.19,1.6.5.49.31,1.83.68,2.98.84,2.5.33,2.43.8-.19,1.19-1.04.16-2.37.53-2.95.83-.58.3-1.16.44-1.29.31-1.08-1.08-2.07.32-2.08,2.95-.02,3.2-.97,5.33-4.45,9.96-1.2,1.6-2.32,3.4-2.48,4.01-.16.61-.54,1.18-.83,1.28-.4.14-.46-.06-.23-.77.17-.52.39-1.76.5-2.75.11-.99.35-1.97.55-2.18.2-.21.36-.7.36-1.1,0-.55.32-.72,1.38-.72.76,0,1.49-.18,1.62-.4.14-.22-.12-.4-.58-.4s-.84-.13-.85-.3c-.01-.16-.08-.88-.15-1.58-.12-1.26-.1-1.28,1.72-1.4,1.47-.1,1.88-.28,2-.91.13-.7.07-.73-.54-.21-1.78,1.48-1.99-.87-.21-2.4,1.78-1.54,2.04-2.54.81-3.2-.52-.28-.8-.84-.8-1.61s.29-1.37.8-1.68c1.26-.79,1-2.17-.6-3.2-1.47-.96-1.89-2.43-.81-2.85.33-.13.6-.06.6.16s.19.39.43.39.37-.31.29-.7c-.11-.54-.54-.7-1.93-.7-2.21,0-2.76-2.29-.79-3.28.77-.39.84-.52.3-.56-.39-.03-.88-.1-1.1-.16s-.67-.12-1-.15-.6-.41-.6-.85-.18-.8-.4-.8-.4-.66-.4-1.47-.21-2.05-.46-2.75c-.37-1.03-.35-1.4.1-1.91.72-.82.91-.82.6-.03m19.26.34l-6.69.82,3.65,3c2.01,1.65,4.14,3.4,4.73,3.88l1.08.88,6.71-.57c3.69-.31,6.78-.63,6.85-.7.13-.13-7.73-6.86-9.01-7.71-.45-.3-2.54-.19-7.33.4m-205.5,9.7v8.12h2.8v-15.91l-1.4-.16-1.4-.16v8.12m103.79-7.38c-.17.5-.34,1.59-.39,2.43-.05.84-.29,1.73-.54,1.98-.25.25-.46.8-.46,1.22,0,.59-.2.71-.9.54-.5-.12-1.14-.08-1.43.1-.4.25-.32.38.3.55,1.66.43,1.17,3.25-.52,2.98-.76-.12-1.55-.02-1.8.23-.7.7-.53,1.09.45.98,1.53-.16,1.35,1.35-.29,2.41-1.58,1.01-1.83,2.24-.61,2.9.52.28.8.84.8,1.6s-.28,1.32-.8,1.6c-1.17.62-.99,1.42.6,2.63,1.39,1.06,1.81,2.28.96,2.8-.24.15-.6.03-.78-.26-.18-.3-.46-.41-.61-.26-.58.58.77,1.53,2,1.41,1.58-.15,2.19,2.36.66,2.76-1.32.34-.96.92.57.92.88,0,1.4.19,1.4.52,0,.29.22.74.49,1.01.27.27.52,1.16.55,1.98.04.82.2,1.99.36,2.59.42,1.58-.35,1.36-.93-.26-.27-.75-1.4-2.59-2.52-4.1-3.17-4.28-3.95-6.08-3.95-9.12v-2.61h-1.58c-.87,0-1.68-.16-1.8-.36-.12-.2-1.12-.49-2.22-.64-2.71-.37-2.84-.87-.3-1.21,1.15-.16,2.33-.47,2.61-.7.28-.23,1.09-.43,1.8-.46l1.29-.04.2-3.03c.21-3.25,1.56-6.05,4.67-9.74.73-.87,1.55-2.17,1.81-2.9.53-1.47,1.4-1.87.91-.43m-91.55,1.92l-1.06,1.26.03,19.23c.04,22.17-.06,21.51,3.17,21.44,2.03-.04,6.57-.62,5.59-.7-1.21-.11-3.86-2.83-4.82-4.94-.94-2.07-.96-2.38-1.08-15.28-.15-16.46.33-18.98,3.95-20.74l1.31-.63-1.97-.26c-1.08-.14-2.44-.35-3.02-.46-.82-.15-1.28.08-2.11,1.07m16.16.72c0,.22.35.51.77.64,4.06,1.29,4.91,4.96,4.76,20.7-.14,14.51-.18,14.69-3.33,17.47l-1.46,1.28,2.96-.07c4.95-.12,4.7.94,4.7-19.93s.25-19.36-4.29-19.81c-1.49-.15-3.02-.36-3.41-.47-.39-.11-.7-.02-.7.2m155.57,5.64c8.11,4.14,7.92,15.53-.33,19.79-1.65.86-2.04.76-.87-.22l.98-.81-1.18.13c-1.99.21-1.66-1.62.41-2.34,1.69-.59,3.07-1.6,1.61-1.19-3.02.85-3,.86-3-.67s.04-1.49,2.5-2.04c1.72-.38,1.29-.85-.64-.7l-1.74.14v-4.54l1.74.14c2.21.18,2.23-.24.04-.93-1.49-.47-1.71-.7-1.82-1.84-.14-1.44.11-1.54,2.3-.91,1.86.53,1.07-.21-.99-.92-2.09-.72-2.39-2.54-.39-2.36l1.2.11-1-.8c-1.28-1.02-.8-1.04,1.17-.03m-77.47.39c-1.15.96-1.13,1.16.1.92,1.91-.37,1.29,1.4-.8,2.3-1.9.81-2.53,1.46-.77.79,1.44-.55,2.05-.49,2.33.24.4,1.04-.45,2.06-1.95,2.34-1.93.36-1.79,1,.16.74l1.57-.21v4.56l-1.62-.27c-1.99-.34-1.77.4.23.78.91.17,1.43.53,1.58,1.08.32,1.23-.11,2.01-.98,1.76-2.13-.6-2.36-.5-.65.27,2.28,1.03,2.91,3.03.8,2.55l-1.1-.25.94.81c1.73,1.48-.11.88-2.45-.8-6.29-4.5-5.76-13.31,1.03-17.2,2.38-1.36,2.86-1.49,1.57-.42m216.9-.38l-2.4.2v5.2l1.21.12c.88.09,1.47-.16,2.17-.9,1.55-1.65,1.62-1.38,1.62,6.78s-.14,8.75-1.67,6.8c-.57-.72-1.17-1-2.16-1h-1.37v5.49l3.1.28,3.1.28,1.11-1.32c.92-1.1,1.08-1.6.91-2.93-.11-.88-.31-5-.45-9.16l-.25-7.55-1.26-1.25c-1.19-1.18-1.39-1.24-3.66-1.05m-194.6,10.6c0,6,.14,9.4.4,9.4s.4-3.4.4-9.4-.14-9.4-.4-9.4-.4,3.4-.4,9.4m-105.96-6.14c-.57,1.65-.6,18.9-.03,19.97.58,1.09,1.77.96,2.32-.24.91-1.99.62-19.22-.34-20.18-1.09-1.09-1.45-1.01-1.96.46m255.57-.16c-.29.6-.61,2.58-.71,4.4l-.19,3.3h2.9v-3.01c0-4.31-1.03-6.72-2-4.69m-60.4,3.14v2.64l1.1-.27c2.91-.7,2.93-5.02.02-5.02-1.11,0-1.12.01-1.12,2.64m-172.87.85c.13,2.88.14,2.91,1.24,2.91,3.29,0,3.23-5.28-.06-5.66l-1.31-.15.13,2.91m65.9,1.46c.04,3.99-.31,4.49-1.9,2.71-1.49-1.66-1.52-3.54-.08-5.24,1.58-1.88,1.94-1.41,1.99,2.54m69.13-2.52c1.46,1.73,1.4,3.67-.16,5.23-1.64,1.64-1.83,1.35-1.75-2.72.08-4.52.15-4.6,1.91-2.5m-113.55,11.57c.18.55.4,3.46.48,6.47.17,6.44.21,6.5,3.81,6.37,3.15-.11,3.09.21.78-4.12-1.1-2.05-2.67-4.99-3.48-6.53-1.64-3.09-2.09-3.71-1.59-2.2m-21.42,7.05l.2,7.45,1.5.09,1.5.09v-6.74c0-7.34-.3-8.34-2.5-8.34h-.9l.2,7.45m-45.28,1.9l.12,8.57,1.38.16,1.38.16v-17.28l-1.5-.09-1.5-.09.12,8.57m113.28,7.65c.4.48.4.72,0,1.2-.8.97-1.47.7-1.47-.6s.66-1.57,1.47-.6m4.9-.05c.66.5.65.57-.07,1.23-1.12,1.01-1.83.05-1.25-1.68.08-.24.69-.03,1.33.45m5.1.05c.4.48.4.72,0,1.2-.83,1-1.6.72-1.6-.6s.77-1.6,1.6-.6m45.48-.06c-.15.39.07.49.76.35.55-.11.96,0,.96.26s-.36.45-.8.45-.8.18-.8.4c0,.61-1.04.48-1.6-.2-.4-.48-.4-.72,0-1.2.62-.75,1.76-.79,1.48-.06m4.92.66c0,1.32-.77,1.6-1.6.6-.4-.48-.4-.72,0-1.2.83-1,1.6-.72,1.6.6m5-.06c.09,1.15-.37,1.41-1.37.79-.74-.47-.75-.55-.15-1.22.82-.9,1.43-.73,1.52.44m-66.2.06c0,.75.11.85.48.48.37-.37.37-.59,0-.96-.37-.37-.48-.27-.48.48m9.77,0c0,.45.19.75.42.67.23-.08.41-.38.41-.67s-.19-.6-.41-.67c-.23-.08-.42.23-.42.67m45.21-.37c-.15.24-.07.64.18.88.33.33.45.21.45-.43,0-.97-.21-1.12-.62-.45m4.82-.03c-.27.44.07,1.2.54,1.2.16,0,.29-.36.29-.8,0-.85-.42-1.06-.83-.4m5.18.03c-.15.24-.07.64.18.88.33.33.45.21.45-.43,0-.97-.21-1.12-.62-.45m-65.78.37c0,.22-.36.4-.8.4s-.8-.18-.8-.4.36-.4.8-.4.8.18.8.4m4.8,0c0,.22-.27.4-.6.4s-.6-.18-.6-.4.27-.4.6-.4.6.18.6.4m4.8,0c0,.22-.27.4-.6.4s-.6-.18-.6-.4.27-.4.6-.4.6.18.6.4m54,0c0,.22-.27.4-.6.4s-.6-.18-.6-.4.27-.4.6-.4.6.18.6.4m4.8,0c0,.22-.27.4-.6.4s-.6-.18-.6-.4.27-.4.6-.4.6.18.6.4m-35.01,1.27c.79.36,1.14.36,1.5,0,.57-.57,2.71-.63,2.71-.07,0,.22.72.4,1.6.4s1.6.17,1.6.39.59.56,1.3.76c.91.26-1.25.38-7.3.4l-8.6.02.97-.81c.65-.54,1.29-.73,1.92-.57.55.14,1.3-.02,1.81-.38,1.05-.74,1.17-.74,2.49-.14m171.91,165.81c.38.1,1.01.1,1.4,0,.38-.1.07-.18-.7-.18s-1.08.08-.7.18m16.4,0c.38.1,1.01.1,1.4,0,.39-.1.07-.18-.7-.18s-1.08.08-.7.18m-21.2,3.6c.39.1,1.02.1,1.4,0,.39-.1.07-.18-.7-.18s-1.08.08-.7.18m-3.4.81c.49.1,1.3.1,1.8,0,.5-.1.09-.17-.9-.17s-1.39.08-.9.17m16.8,0c.5.1,1.31.1,1.8,0,.49-.1.09-.17-.9-.17s-1.4.08-.9.17"/><path id="path4" class="cls-3" d="m149.2,43.51c-2.31,2.64-4.5,5.09-4.88,5.43-.61.56-3.77.31-33.91-2.7-30.71-3.07-33.42-3.28-35.72-2.81-1.37.28-8.43,1.85-15.69,3.49-7.26,1.64-16.53,3.73-20.6,4.64-9.05,2.02-8.59,1.54-5.65,5.79l2.45,3.54v38.01l-2.98,3.38c-1.64,1.86-2.94,3.42-2.9,3.45.07.06,7.36-.41,43.87-2.82,34.54-2.28,52.36-3.43,53.4-3.44,1.01-.01,1.91-.78,5.8-5,2.53-2.74,4.69-4.98,4.8-4.98.11,0,4.16,4.92,9,10.93l8.8,10.92,14.37.27c7.9.15,25.45.26,39,.25l24.63-.02,8.16-11.15,8.16-11.15,2.89,3.49c2.77,3.34,2.96,3.49,4.64,3.58.97.05,12.2.98,24.96,2.07,12.76,1.09,33.91,2.88,47,3.99,13.09,1.1,30.34,2.57,38.33,3.25,7.99.68,14.59,1.18,14.66,1.1.18-.19-1.64-59.13-1.83-59.29-.09-.07-8.75-1.7-19.25-3.63l-19.09-3.51-35.71,4.42c-19.64,2.43-41.25,5.1-48.03,5.94l-12.32,1.51-1.88-2.1c-1.03-1.16-3.77-4.25-6.08-6.87l-4.2-4.77-4.26-.02-4.26-.02,1.16,1.24c.64.68,1.16,1.4,1.16,1.6s1.05.36,2.34.36h2.34l7.76,10.26,7.76,10.26.12-3.66c.11-3.47.16-3.66,1-3.68.49,0,3.54-.34,6.78-.73l5.9-.71,5.02,4.15c2.76,2.28,5.33,4.14,5.7,4.13,2.06-.06,5.68-.56,5.66-.78,0-.14-1.73-2.05-3.82-4.25l-3.8-4,4.1-.49,4.1-.49,5.42,4.05c2.98,2.23,5.49,4.11,5.59,4.19.09.08-.22.56-.7,1.07-.96,1.03-1.41,24.67-.47,24.67.26,0,.4-4.24.41-11.9.02-14.18-.26-13.32,4.49-13.9l3.27-.4-5.54-4.2c-6.52-4.94-6.89-4.43,3.89-5.4l7.11-.64,5.99,3.48,5.99,3.48v6.53c0,4.09.15,6.53.4,6.53s.4-2.11.4-5.55v-5.54l1.86-.26c1.02-.14,2.73-.25,3.8-.25,2.78,0,2.65-.13-4.76-5l-6.7-4.39,3.2-.33,3.2-.33,6.28,3.49c5.11,2.84,6.37,3.72,6.78,4.71.28.67,1.92,2.85,3.64,4.84,1.73,1.99,3.58,4.47,4.12,5.5l.98,1.89v13.45c0,14.16.21,15.77,2.09,15.77.24,0,.09-.38-.33-.84-.71-.78-.78-1.79-.96-14.9l-.2-14.06-1.08-1.8c-.6-.99-2.43-3.32-4.09-5.18-1.65-1.86-2.94-3.44-2.87-3.51.07-.07,3.26-.4,7.09-.73,3.82-.33,7.12-.65,7.32-.71.2-.06-4.21-2.08-9.8-4.49l-10.17-4.38,3.6-.34,3.6-.34,10.8,4.44c5.94,2.44,11.25,4.68,11.8,4.98,1.53.83,3.13,4.39,3.45,7.65.17,1.78.56,3.21,1.05,3.92.93,1.33,1.43,1.16.56-.19-.33-.51-.72-2.01-.86-3.33-.4-3.69-1.29-6.02-2.79-7.34l-1.34-1.17,1.46-.24c.8-.13,2-.25,2.66-.26,1.7-.02,1.38-.17-10.4-4.59-5.72-2.15-10.55-4.04-10.74-4.21-1.07-.98,7.41-.85,13.4.2,3.38.59,9.74,1.7,14.14,2.46,4.4.76,8.96,1.6,10.12,1.87l2.12.48.13,7.8c.07,4.29.32,9.78.55,12.2.58,6.13,1.08,31.22.63,31.49-.26.15-61.29-4.62-62.06-4.86-.06-.02-.1-2.82-.1-6.23,0-3.87-.15-6.2-.4-6.2s-.4,2.42-.4,6.45v6.45l-.9-.27c-.49-.15-4.23-.53-8.3-.85-4.07-.32-7.98-.68-8.69-.79l-1.29-.21-.12-5.68-.12-5.68-.09,6.07c-.09,6.2-.17,6.48-1.62,5.58-.54-.34-4.74-.72-24.66-2.24-5.94-.45-11.18-.91-11.65-1.01-.7-.15-3.23-2.87-7.36-7.91-.57-.7-1.18-.01-9.6,10.88l-8.99,11.63h-37.41s-37.42,0-37.42,0l-1.4-1.7c-.77-.93-5.15-6.43-9.73-12.2s-8.45-10.49-8.59-10.48c-.14.01-2.23,2.73-4.65,6.04l-4.4,6.01-.11-14.1c-.11-14.03-.1-14.11.77-15.04,1.04-1.11.51-1.22-.76-.15l-.9.75v14.81c0,13.76-.05,14.82-.7,15.02-1.65.49-8.85.39-9.47-.13-.51-.43-.63-1.49-.64-5.77,0-2.89-.18-5.52-.39-5.85-.26-.4-.39,1.22-.39,4.97,0,4.63.11,5.69.66,6.3.37.4.57.83.46.94-.24.24-14.11,1.32-18.92,1.48l-3.2.1-.11-7.3c-.07-4.41-.26-7.3-.5-7.3s-.39,2.84-.39,7.38v7.38l-1.7.22c-.93.12-4.4.36-7.7.53l-6,.3,1.87-1.85c2.96-2.93,3.13-3.92,3.13-18.15s-.18-15-2.82-17.85l-1.62-1.75,1.2,1.73c2.39,3.45,2.5,4.27,2.36,18.54-.17,18.61-.85,19.55-14.53,20.12l-6,.25-.68-1.15c-.61-1.04-.68-3.02-.7-20.4l-.02-19.25,1.11-1.22,1.11-1.22,3.41.45,3.41.45,13.07-4.85q13.05-4.85,15.53-4.54l2.46.31-11.29,4.6c-11.85,4.82-13.03,5.38-11.48,5.43.5.02,2.26.16,3.91.32l3,.29,10.58-5.24,10.58-5.24,5.32.28c2.93.15,5.32.38,5.31.52,0,.13-3.61,2.76-8,5.84-4.39,3.08-7.98,5.74-7.98,5.92s.14.24.32.13c.17-.11,1.54-.04,3.04.14l2.73.34,7.37-6.16,7.37-6.17,3.23.3,3.23.3-5.14,4.82c-2.83,2.65-5.82,5.43-6.64,6.16-.82.74-1.5,1.54-1.51,1.78,0,.66,5.37,11.54,5.5,11.14.07-.19-.97-2.63-2.29-5.42-2.87-6.05-2.81-5.48-.58-5.48,1.8,0,1.94-.1,8.81-6.3,3.84-3.46,7.2-6.3,7.47-6.29.27,0,2.27.16,4.44.34l3.95.34-.2,4.35c-.11,2.39-.08,4.28.07,4.18.15-.09,3.41-4.32,7.24-9.39l6.98-9.23h3s3-.01,3-.01l1.32-1.59,1.32-1.59h-5.32s-5.32.03-5.32.03l-4.2,4.81m6.98-.8c-.15.24.02.74.37,1.09.6.6.65.58.65-.21,0-1-.62-1.53-1.02-.88m2.82.11c-.72.53-.71.57.17,1.04,1.17.63,2.72-.5,1.62-1.19-.79-.5-.92-.49-1.8.15m4,0c-.72.53-.72.57.15,1.03,1.16.62,2.34-.14,1.6-1.03-.57-.68-.82-.68-1.75,0m4,0c-.72.53-.71.57.17,1.04,1.17.63,2.72-.5,1.62-1.19-.79-.5-.92-.49-1.8.15m4.06-.1c-.7.41-.69.45.12,1.02,1.07.75,2.35,0,1.57-.93-.54-.65-.72-.66-1.69-.1m3.94.1c-.72.53-.71.57.17,1.04,1.17.63,2.72-.5,1.62-1.19-.79-.5-.92-.49-1.8.15m4,0c-.72.53-.72.57.15,1.03,1.16.62,2.34-.14,1.6-1.03-.57-.68-.82-.68-1.75,0m4,0c-.72.53-.71.57.17,1.04,1.17.63,2.72-.5,1.62-1.19-.79-.5-.92-.49-1.8.15m4.06-.1c-.7.41-.69.46.14,1.04.79.55.94.54,1.53-.05,1.04-1.04-.26-1.8-1.67-.98m3.94.1c-.72.53-.71.57.17,1.04,1.17.63,2.72-.5,1.62-1.19-.79-.5-.92-.49-1.8.15m4,0c-.72.53-.71.57.17,1.04,1.17.63,2.72-.5,1.62-1.19-.79-.5-.92-.49-1.8.15m4.06-.1c-.7.41-.69.46.14,1.04.79.55.94.54,1.53-.05,1.04-1.04-.26-1.8-1.67-.98m4,0c-.7.41-.69.46.14,1.04.79.55.94.54,1.53-.05,1.04-1.04-.26-1.8-1.67-.98m3.94.1c-.72.53-.71.57.17,1.04,1.17.63,2.72-.5,1.62-1.19-.79-.5-.92-.49-1.8.15m4.06-.1c-.7.41-.69.46.14,1.04.79.55.94.54,1.53-.05,1.04-1.04-.26-1.8-1.67-.98m4,0c-.7.41-.69.46.14,1.04.79.55.94.54,1.53-.05,1.04-1.04-.26-1.8-1.67-.98m4,0c-.7.41-.69.46.14,1.04.79.55.94.54,1.53-.05,1.04-1.04-.26-1.8-1.67-.98m4,0c-.7.41-.69.46.14,1.04.79.55.94.54,1.53-.05,1.04-1.04-.26-1.8-1.67-.98m4,0c-.7.41-.69.46.14,1.04.79.55.94.54,1.53-.05,1.04-1.04-.26-1.8-1.67-.98m3.61-.19c-.15.15-.27.64-.27,1.09,0,.77.04.78.68.14.47-.47.55-.81.27-1.09-.23-.22-.53-.29-.68-.14m-76.01,2.01c-.72.72-.27,2.16.53,1.73.89-.48,1.1-2,.27-2-.29,0-.65.12-.8.27m77.09.77c.13.35.24.78.24.95s.36.41.8.53c1,.26,1.16-1.49.17-1.87-1.06-.41-1.46-.28-1.21.39m-47.96.57c.14.22.61.4,1.05.4s1.09.28,1.43.63c.41.41.98.54,1.63.38.6-.15,1.12-.06,1.3.22.4.65,2.4.6,2.82-.08.28-.45.49-.46,1.15-.05,1.01.63,1.83.63,2.94.02.48-.26,1.34-.43,1.92-.38s1.31-.16,1.63-.48c.32-.32.93-.67,1.35-.78.43-.11-3.33-.22-8.35-.24-5.99-.03-9.04.09-8.88.35m-106.12,1.85c1.23.2-.91.85-12.6,3.81-7.74,1.96-14.75,3.75-15.58,3.97l-1.5.4v8.18c0,5.19.15,8.18.4,8.18s.4-2.99.4-8.18v-8.17l1.32.21c.9.15,6.5-1.06,17.7-3.83,13.66-3.37,16.9-4.04,19.48-4.04,3.81,0,3.92.38.4,1.38-20.27,5.75-26.66,7.82-27.55,8.9l-.92,1.12v19.34c-.03,18.92-.01,19.36.8,20.5.45.64.77,1.19.7,1.22-.5.22-9.59.92-10.63.82l-1.3-.13v-8.37c0-5.2-.15-8.38-.39-8.38s-.43,3.28-.5,8.49l-.11,8.49-1.6.27c-3.08.51-8.57.63-8.31.18.13-.23.57-.9.98-1.49,1.23-1.78,1.12-42.03-.12-44.13-1.14-1.93-2.45-1.52,16.95-5.43,17.34-3.5,19.24-3.78,21.98-3.33m74.59.01c-.32.32-.36,1.73-.04,1.73.75,0,1.71-.89,1.52-1.41-.24-.62-1.01-.79-1.48-.33m8.13.13c0,.22-.36.4-.8.4s-.8.2-.8.45.41.37.96.26c.69-.13.9-.03.76.35-.28.73.86.69,1.48-.06.4-.48.4-.72,0-1.2-.56-.68-1.6-.81-1.6-.2m5.17-.3c-.5,1.51.15,2.77.97,1.89.36-.39.35-.44-.04-.22-.33.19-.5-.01-.5-.6,0-.88,0-.88.9-.12l.9.76-.76-.9c-.65-.77-1.35-1.15-1.47-.8m4.83,1.1c0,1.32.77,1.6,1.6.6.4-.48.4-.72,0-1.2-.83-1-1.6-.72-1.6.6m45.6-.6c-.4.48-.4.72,0,1.2.8.97,1.47.7,1.47-.6s-.66-1.57-1.47-.6m4.8,0c-.4.48-.4.72,0,1.2.83,1,1.6.72,1.6-.6s-.77-1.6-1.6-.6m5.09.1c-.61.67-.6.76.15,1.22,1,.63,1.46.37,1.37-.79-.09-1.16-.7-1.34-1.52-.44m-64.21.98c-.37.37-.48.27-.48-.48s.11-.85.48-.48c.37.37.37.59,0,.96m10.12-.48c0,.89-.82.87-.89-.02-.04-.49.14-.76.41-.67.26.09.48.4.48.69m45,.08c0,.65-.12.76-.45.44-.24-.25-.32-.64-.18-.88.41-.67.62-.52.62.44m5.03-.08c0,.44-.13.8-.29.8-.46,0-.81-.76-.54-1.2.41-.66.83-.45.83.4m4.97.08c0,.65-.12.76-.45.44-.24-.25-.32-.64-.18-.88.41-.67.62-.52.62.44m7.55.19c.4,1.51,1.65,1.78,1.65.36,0-.57-.16-1.03-.37-1.03s-.64-.1-.97-.23c-.49-.19-.55-.02-.3.9m-70.35-.27c0,.22.27.4.6.4s.6-.18.6-.4-.27-.4-.6-.4-.6.18-.6.4m4.8,0c0,.22.27.4.6.4s.6-.18.6-.4-.27-.4-.6-.4-.6.18-.6.4m48.8,0c0,.22.36.4.8.4s.8-.18.8-.4-.36-.4-.8-.4-.8.18-.8.4m5.2,0c0,.22.27.4.6.4s.6-.18.6-.4-.27-.4-.6-.4-.6.18-.6.4m4.8,0c0,.22.27.4.6.4s.6-.18.6-.4-.27-.4-.6-.4-.6.18-.6.4m-77.5,1.87c-1,.4-.61,2.15.4,1.77.49-.18.9-.66.9-1.05,0-.77-.49-1.04-1.3-.72m86.77,1.64c.09.8.38,1.13,1.06,1.23,1.27.18,1.05-1.5-.26-1.99-.84-.31-.91-.24-.8.76m-89.37,2.3c-.2,1.04,0,1.17,1.07.76.91-.35.81-1.76-.12-1.76-.49,0-.82.36-.95,1m49.8-.67l-.9.13v41.14h12v-5.4c0-4.92.06-5.4.72-5.4.55,0,1.21,1.27,2.83,5.4l2.11,5.4h6.37c4.42,0,6.37-.14,6.37-.45,0-.24-2.07-5.02-4.6-10.61s-4.6-10.27-4.6-10.39,1.98-4.5,4.4-9.73c2.42-5.23,4.4-9.63,4.4-9.77s-2.9-.21-6.44-.15l-6.44.11-1.86,4.9c-2.59,6.84-3.26,6.82-3.26-.08v-4.98l-5.1-.12c-2.81-.07-5.51-.06-6,0m37.14.34c-.45.51-.47.89-.1,1.91.25.7.46,1.94.46,2.75s.18,1.47.4,1.47.4.36.4.8.27.82.6.85.78.1,1,.15.71.12,1.1.16c.54.04.47.17-.3.56-1.97,1-1.42,3.28.79,3.28,1.39,0,1.82.16,1.93.7.08.39-.05.7-.29.7s-.43-.17-.43-.39-.27-.28-.6-.16c-1.09.42-.67,1.89.81,2.85,1.6,1.03,1.85,2.42.6,3.2-.51.32-.8.93-.8,1.68s.28,1.33.8,1.61c1.23.66.97,1.66-.81,3.2-1.78,1.53-1.57,3.87.21,2.4.61-.51.67-.49.54.21-.12.62-.53.81-2,.91-1.82.12-1.85.14-1.72,1.4.07.7.14,1.41.15,1.58.01.17.4.3.85.3s.71.18.58.4c-.14.22-.87.4-1.62.4-1.06,0-1.38.17-1.38.72,0,.4-.16.89-.36,1.1-.2.21-.45,1.19-.55,2.18-.1.99-.33,2.23-.5,2.75-.23.71-.17.91.23.77.3-.1.67-.67.83-1.28.16-.61,1.28-2.41,2.48-4.01,3.48-4.62,4.43-6.76,4.45-9.96.01-2.63,1.01-4.03,2.08-2.95.13.13.71-.01,1.29-.31.58-.3,1.91-.67,2.95-.83,2.62-.39,2.69-.86.19-1.19-1.15-.15-2.5-.53-2.98-.84-.49-.31-1.21-.53-1.6-.5-1.89.16-1.95.06-1.93-2.96.02-3.3-1.18-6.03-4.26-9.73-1.91-2.29-3.23-5.02-2.88-5.93.31-.8.12-.79-.6.03m-70.69.49c-2.08,1.28-2.15,1.96-2.15,19.61,0,22.7-1.47,20.64,14.8,20.64s15.2,2.23,15.2-20.77v-17.41l-1.17-1.31-1.17-1.31-12.13-.11c-11.38-.1-12.21-.06-13.38.66m75.52.74c.09.79.38,1.14,1.03,1.23,1.3.18,1.2-1.26-.13-1.87-.98-.45-1.02-.41-.9.64m-87.59,1.83c-.26.73-1.08,2.03-1.81,2.9-3.11,3.68-4.46,6.49-4.67,9.74l-.2,3.03-1.29.04c-.71.02-1.52.23-1.8.46-.28.23-1.46.54-2.61.7-2.54.34-2.41.83.3,1.21,1.1.15,2.1.44,2.22.64.12.2.93.36,1.8.36h1.58v2.61c0,3.04.78,4.85,3.95,9.12,1.12,1.51,2.25,3.35,2.52,4.1.59,1.63,1.35,1.84.93.26-.16-.6-.32-1.77-.36-2.59-.04-.82-.29-1.71-.55-1.98-.27-.27-.49-.72-.49-1.01,0-.33-.52-.52-1.4-.52-1.53,0-1.89-.58-.57-.92,1.52-.4.92-2.91-.66-2.76-1.23.12-2.57-.84-2-1.41.15-.15.43-.04.61.26.18.3.53.42.78.26.85-.53.44-1.74-.96-2.8-1.59-1.21-1.77-2-.6-2.63.52-.28.8-.84.8-1.6s-.28-1.32-.8-1.6c-1.23-.66-.97-1.88.61-2.9,1.64-1.05,1.82-2.57.29-2.41-.98.1-1.15-.28-.45-.98.25-.25,1.04-.35,1.8-.23,1.68.27,2.18-2.54.52-2.98-.63-.16-.7-.3-.3-.55.29-.18.94-.23,1.43-.1.7.18.9.06.9-.54,0-.42.21-.97.46-1.22.25-.25.49-1.14.54-1.98.05-.84.22-1.93.39-2.43.49-1.45-.38-1.04-.91.43m-6.21-.66c-.72.72-.27,2.16.53,1.73.89-.48,1.1-2,.27-2-.29,0-.65.12-.8.27m96.14,1.64c0,.9.43,1.49,1.29,1.81,1.19.44.9-1.5-.3-2.04-.86-.39-1-.36-.99.24m-98.54,1.56c-.32.32-.36,1.73-.04,1.73.64,0,1.77-.9,1.77-1.41,0-.59-1.24-.82-1.73-.32m101.24,2.23c.22.88.79,1.48,1.4,1.49.59.01.29-1.91-.33-2.15-1.08-.41-1.3-.28-1.07.66m-103.74,1.32c-.32,1.26-.2,1.38.94.95,1.15-.44,1.24-1.97.11-1.97-.52,0-.88.36-1.05,1.02m133.84.49c3.49,3.49,3.37,13.21-.2,16.79-1.92,1.93-1.9,2.18.07.68,3.97-3.03,4.34-14.71.56-17.9-1.89-1.59-2.16-1.32-.42.43m-171.92.09c3.05,4.19,2.88,11.64-.34,14.62-.54.5-.81,1.01-.6,1.14.21.13,1.01-.47,1.78-1.33,3.16-3.49,2.74-11.68-.75-14.84l-1.11-1,1.02,1.4m76.63,10.15c.12,12.16.17,11.95-2.67,11.77l-1.83-.12-.11-11.32-.11-11.32,2.31.12,2.31.12.11,10.75m52.49-8.93l1,.8-1.2-.11c-2-.18-1.7,1.64.39,2.36,2.05.71,2.85,1.46.99.92-2.2-.63-2.44-.53-2.3.91.11,1.14.33,1.37,1.82,1.84,2.19.69,2.17,1.1-.04.93l-1.74-.14v4.54l1.74-.14c1.93-.15,2.36.31.64.7-2.46.55-2.5.58-2.5,2.04s-.02,1.52,3,.67c1.46-.41.08.61-1.61,1.19-2.07.72-2.4,2.56-.41,2.34l1.18-.13-.98.81c-1.17.98-.79,1.07.87.22,8.25-4.26,8.43-15.66.33-19.79-1.97-1-2.45-.99-1.17.03m15.2.23c0,1.05,1.01,1.7,1.64,1.07.55-.55.05-1.6-.87-1.84-.61-.16-.77,0-.77.77m-93.07.55c-6.79,3.89-7.32,12.7-1.03,17.2,2.34,1.67,4.18,2.27,2.45.8l-.94-.81,1.1.25c2.11.48,1.48-1.52-.8-2.55-1.71-.78-1.47-.87.65-.27.87.24,1.3-.53.98-1.76-.15-.56-.66-.91-1.58-1.08-2.01-.38-2.23-1.12-.23-.78l1.62.27v-4.56l-1.57.21c-1.95.26-2.09-.38-.16-.74,1.5-.28,2.34-1.3,1.95-2.34-.28-.73-.89-.79-2.33-.24-1.76.67-1.12.02.77-.79,2.09-.9,2.71-2.67.8-2.3-1.23.24-1.25.04-.1-.92,1.29-1.07.81-.94-1.57.42m194.35-.72c-1.55,1.55-.06,4.54,3.79,7.63,5.39,4.33,6.2,5.93,6.45,12.79.26,6.83-.92,10.42-4.04,12.32-.71.43-1.1.78-.88.79,3.21.01,5.59-5.02,5.59-11.8,0-8.12-.13-8.37-8.14-15.68-2.32-2.12-3.36-5.3-2.02-6.15.31-.19.37-.36.14-.36-.23,0-.64.21-.9.47m-208.98.2c-.41.11-.7.56-.7,1.12,0,.74.17.89.8.72.52-.13.8-.55.8-1.16,0-.52-.04-.93-.1-.91-.05.03-.41.13-.8.23m230.23,2.52c0,1.65.07,2.32.16,1.5.09-.82.09-2.18,0-3-.09-.82-.16-.15-.16,1.5m-120.06.7c.09.8.38,1.13,1.06,1.23,1.27.18,1.05-1.5-.26-1.99-.84-.31-.92-.24-.8.76m56.73,1.47c0,1.2.18,2.29.4,2.42.25.15.4-.66.4-2.18,0-1.35-.18-2.42-.4-2.42s-.4.98-.4,2.18m20.52-.68c-.8,1.86-1.23,7.7-.57,7.7.29,0,.45-1.02.46-2.9,0-2,.25-3.43.78-4.6.43-.93.59-1.7.37-1.7s-.69.68-1.04,1.5m-190.37-.52c-.53,1.39-.02,1.97,1.01,1.13.55-.45.84-.98.68-1.25-.4-.65-1.42-.58-1.69.11m-65.34.6c-1.1,2.05-.39,20.83.79,20.83.3,0,.3-.24.01-.77-.53-1-.55-18.4-.02-19.8.46-1.22-.15-1.42-.78-.25m303.75,7.03c0,4.4.06,6.26.13,4.12.07-2.13.07-5.73,0-8-.07-2.27-.13-.52-.13,3.88m-108.57-4c0,1.47.17,2.6.4,2.6s.4-1.13.4-2.6-.17-2.6-.4-2.6-.4,1.13-.4,2.6m-172.8,1c0,1.6.17,2.8.4,2.8s.4-1.2.4-2.8-.17-2.8-.4-2.8-.4,1.2-.4,2.8m158.4-2.22c0,1.1.5,1.82,1.24,1.82,1.12,0,.94-1.39-.24-1.93-.81-.37-1-.35-1,.1m59.87-.31c-.44.44-.32,12.53.13,12.53.25,0,.4-2.4.4-6.4,0-3.52-.06-6.4-.13-6.4s-.25.12-.4.27m-177.18.59c-.63.35-1.01,1.95-.46,1.95.63,0,1.77-.9,1.77-1.39,0-.79-.5-1.01-1.31-.56m23.56.76c-1.43,1.7-1.4,3.58.08,5.24,1.59,1.78,1.94,1.29,1.9-2.71-.04-3.95-.41-4.41-1.99-2.54m69.31-1.11c-.22.52-.09,7.21.14,7.36.72.45,2.7-2.19,2.7-3.6,0-1.67-2.39-4.82-2.84-3.76m26.82,3.11c-.98.6.18,1.42,1.3.92.9-.4.9-.41.09-.84-.49-.26-1.04-.3-1.39-.08m-122.35.56c-.38.45-.3.62.39.84.96.3,1.82-.29,1.4-.97-.38-.61-1.24-.54-1.79.13m1.97,2.65c0,.99,1.72,1.81,1.93.92.17-.71-.65-1.73-1.38-1.73-.3,0-.55.37-.55.81m118.04-.26c-.66.79-.15,1.8.78,1.56.49-.13.77-.55.77-1.16,0-1.05-.84-1.27-1.56-.4m-148.52,3.41c1.48,1.46,1.68,2.53,1.68,9.2,0,5.8.06,6.37.8,7.04.44.4.8.53.8.29s-.18-.55-.4-.69c-.24-.15-.4-2.77-.4-6.52,0-6.86-.38-8.39-2.4-9.62l-1-.61.93.91m32.94.06c.21,1.43,2.02,1.89,1.86.47-.09-.8-.38-1.13-1.06-1.23-.77-.11-.91.03-.8.76m113.34-.28c-.46.34-.64.79-.48,1.22.35.92,1.87.13,1.87-.97,0-.92-.37-.99-1.39-.24m56.59,3.66c0,1.21.18,2.2.4,2.2s.4-.99.4-2.2-.18-2.2-.4-2.2-.4.99-.4,2.2m63.04-1.17c-.38.98-.27,3.9.16,4.57.27.42.39-.28.39-2.3,0-2.93-.11-3.42-.55-2.27m-103.04,4.08c0,4.3.49,6.09,1.68,6.09.24,0,.14-.33-.22-.73-.53-.59-.66-1.6-.66-5.2,0-2.71-.16-4.47-.4-4.47s-.4,1.7-.4,4.31m-127.2-3.12c0,.73,1.44,1.9,1.85,1.5.1-.1,0-.65-.22-1.23-.47-1.23-1.62-1.42-1.62-.27m108.3-.35c-.81.47-.95,1.97-.18,1.97s1.48-.84,1.48-1.68-.29-.88-1.3-.29m100.1.67c0,1.01.9,3.25,1.37,3.43.47.18.47.05,0-.86-.31-.59-.56-1.48-.56-1.97,0-.49-.18-.9-.4-.9s-.4.13-.4.3m-21.6,6.9c0,3.47.15,5.6.4,5.6s.4-2.13.4-5.6-.15-5.6-.4-5.6-.4,2.13-.4,5.6m-184.4-4.01c0,.67,1.04,1.61,1.77,1.61.42,0,.23-1.44-.25-1.92-.73-.73-1.52-.57-1.52.31m103.5-.51c-.43.11-.7.57-.7,1.18,0,1.38,1.25,1.1,1.64-.36.16-.6.17-1.08.03-1.05-.15.03-.58.13-.96.23m-100.7,3.9c0,.57.16,1.03.37,1.03s.64.11.97.23c.49.19.55.02.3-.9-.4-1.51-1.65-1.78-1.65-.36m98.1-.53c-1.04.39-1.2,1.47-.27,1.83.82.32,1.48-.37,1.31-1.37-.11-.65-.3-.73-1.03-.46m-95.7,3.55c0,.67,1.04,1.61,1.77,1.61.58,0,.14-1.62-.55-1.99-1.07-.57-1.23-.53-1.23.37m93.3-.35c-1.17.44-1.23,1.96-.09,1.96.85,0,1.35-.76,1.12-1.73-.1-.42-.38-.48-1.03-.24m-90.78,3.42c-.24.62.77,1.74,1.55,1.74.6,0,.33-1.91-.31-2.16-.89-.34-.96-.32-1.25.41m88.38-.22c-1.13.43-1.24,1.97-.14,1.97.48,0,.85-.38,1.02-1.05.32-1.28.26-1.35-.88-.92m-85.7,3.72c0,.88.65,1.44,1.66,1.44.49,0,0-1.69-.61-2.09-.77-.51-1.05-.34-1.05.65m83.24-.45c-.52.27-.93.63-.9.79.03.16.05.58.05.91,0,1.01,1.47-.03,1.7-1.2.11-.56.17-1.01.15-1.01-.02,0-.48.23-1,.5m-74.31,1.49c0,1.3.66,1.57,1.47.6.4-.48.4-.72,0-1.2-.8-.97-1.47-.7-1.47.6m5.03-1.1c-.58,1.73.14,2.69,1.25,1.68.73-.66.73-.73.07-1.23-.64-.49-1.25-.7-1.33-.45m4.83,1.1c0,1.32.77,1.6,1.6.6.4-.48.4-.72,0-1.2-.83-1-1.6-.72-1.6.6m45.6-.6c-.4.48-.4.72,0,1.2.56.68,1.6.81,1.6.2,0-.22.36-.4.8-.4s.8-.2.8-.45-.41-.37-.96-.26c-.69.13-.9.03-.76-.35.28-.73-.86-.68-1.48.06m4.8,0c-.4.48-.4.72,0,1.2.83,1,1.6.72,1.6-.6s-.77-1.6-1.6-.6m5.09.1c-.61.67-.6.76.15,1.22,1,.63,1.46.37,1.37-.79-.09-1.17-.7-1.34-1.52-.44m-64.21.98c-.37.37-.48.27-.48-.48s.11-.85.48-.48c.37.37.37.59,0,.96m10.12-.48c0,.29-.19.6-.41.67-.23.08-.42-.23-.42-.67s.19-.75.42-.67c.23.08.41.38.41.67m45,.08c0,.65-.12.76-.45.43-.24-.24-.32-.64-.18-.88.41-.67.62-.52.62.45m5.03-.08c0,.85-.42,1.06-.83.4-.27-.44.07-1.2.54-1.2.16,0,.29.36.29.8m4.97.08c0,.65-.12.76-.45.43-.24-.24-.32-.64-.18-.88.41-.67.62-.52.62.45m-68-.08c0,.22.36.4.8.4s.8-.18.8-.4-.36-.4-.8-.4-.8.18-.8.4m5.2,0c0,.22.27.4.6.4s.6-.18.6-.4-.27-.4-.6-.4-.6.18-.6.4m4.8,0c0,.22.27.4.6.4s.6-.18.6-.4-.27-.4-.6-.4-.6.18-.6.4m54,0c0,.22.27.4.6.4s.6-.18.6-.4-.27-.4-.6-.4-.6.18-.6.4m4.8,0c0,.22.27.4.6.4s.6-.18.6-.4-.27-.4-.6-.4-.6.18-.6.4m-36.3,1.41c-.51.36-1.26.51-1.81.38-.63-.16-1.27.04-1.92.57l-.97.81,8.6-.02c6.05-.02,8.21-.13,7.3-.4-.71-.21-1.3-.55-1.3-.76s-.72-.39-1.6-.39-1.6-.18-1.6-.4c0-.56-2.14-.5-2.71.07-.36.36-.71.36-1.5,0-1.32-.6-1.44-.59-2.49.14m-37.16.38c-.28.73.5,1.81,1.3,1.81.85,0,.65-1.52-.26-2-.63-.34-.86-.3-1.04.19m77.46.41c-.27.33-.39.88-.26,1.22.34.87,1.85.03,1.85-1.03,0-.93-.9-1.04-1.6-.19m-74.74,2.33c-.66.8-.47,1.58.28,1.12.3-.18.48-.66.4-1.05-.13-.65-.18-.66-.68-.07m1.98.02c-.72.86.44,1.65,1.56,1.05.68-.37.76-.57.38-1.03-.6-.72-1.35-.73-1.93-.03m4,0c-.72.86.44,1.65,1.56,1.05.68-.37.76-.57.38-1.03-.6-.72-1.35-.73-1.93-.03m4,0c-.74.89.45,1.65,1.6,1.03.86-.46.87-.5.15-1.03-.94-.68-1.18-.68-1.75,0m4,0c-.74.89.45,1.65,1.6,1.03.86-.46.87-.5.15-1.03-.94-.68-1.18-.68-1.75,0m4,0c-.77.93.5,1.68,1.58.92q.85-.6.04-1.04c-1.03-.55-1.07-.55-1.62.11m3.96-.15c-.53.33-.52.46.06,1.04s.75.6,1.54.05c.87-.61.87-.62.06-1.05-.97-.52-.91-.52-1.66-.04m4,0c-.53.33-.52.46.06,1.04s.75.6,1.54.05c.87-.61.87-.62.06-1.05-.97-.52-.91-.52-1.66-.04m3.78.05c-.57.92.85,1.73,1.83,1.05.87-.61.87-.62.06-1.05-1.03-.55-1.55-.55-1.89,0m4,0c-.57.92.85,1.73,1.83,1.05.87-.61.87-.62.06-1.05-1.03-.55-1.55-.55-1.89,0m4,0c-.57.92.85,1.73,1.83,1.05.87-.61.87-.62.06-1.05-1.03-.55-1.55-.55-1.89,0m4.09-.17c-1.01,1.01.57,2.04,1.8,1.17l.81-.57-.81-.43c-.93-.5-1.42-.55-1.8-.17m3.76.31c-.76.92.92,1.65,2.02.88l.83-.58-.81-.43c-1.07-.58-1.47-.55-2.04.14m4,0c-.76.92.92,1.65,2.02.88l.83-.58-.81-.43c-1.07-.58-1.47-.55-2.04.14m4,0c-.74.89.7,1.51,1.95.84q.96-.51.12-.96c-1.1-.59-1.5-.57-2.07.12m4,0c-.66.79.64,1.53,1.69.97.59-.31.64-.51.26-.97-.6-.73-1.35-.73-1.95,0m4,0c-.66.79.64,1.53,1.69.97.59-.31.64-.51.26-.97-.6-.73-1.35-.73-1.95,0m4.02-.02c-.72.86.44,1.65,1.56,1.05.68-.37.76-.57.38-1.03-.6-.72-1.35-.73-1.93-.03m4,0c-.72.86.44,1.65,1.56,1.05.68-.37.76-.57.38-1.03-.6-.72-1.35-.73-1.93-.03m3.62.24c.08.52.36,1.02.64,1.11.72.24.62-.91-.14-1.53-.56-.46-.62-.41-.5.42"/></svg>